<?xml version="1.0" standalone="no"?>
<!DOCTYPE svg PUBLIC "-//W3C//DTD SVG 20010904//EN"
 "http://www.w3.org/TR/2001/REC-SVG-20010904/DTD/svg10.dtd">
<svg version="1.0" xmlns="http://www.w3.org/2000/svg"
 width="700.000000pt" height="700.000000pt" viewBox="0 0 700.000000 700.000000"
 preserveAspectRatio="xMidYMid meet">
<metadata>
Created by potrace 1.11, written by Peter Selinger 2001-2013
</metadata>
<g transform="translate(0.000000,700.000000) scale(0.100000,-0.100000)"
fill="#000000" stroke="none">
<path d="M2056 6882 c1 -107 -17 -297 -36 -375 -6 -23 -13 -53 -16 -67 -36
-176 -156 -445 -277 -624 -88 -131 -249 -311 -362 -406 -341 -285 -779 -450
-1212 -454 -159 -1 -153 6 -68 -80 82 -83 118 -127 191 -226 199 -272 330
-617 361 -950 13 -136 6 -392 -13 -484 -2 -12 -7 -37 -10 -56 -3 -19 -16 -78
-29 -130 -83 -331 -247 -625 -491 -879 l-92 -96 132 -1 c156 0 208 -5 346 -34
186 -38 361 -98 510 -177 75 -39 80 -42 180 -107 320 -207 592 -539 734 -894
49 -122 96 -279 111 -372 3 -19 7 -46 10 -60 11 -64 18 -155 21 -270 1 -69 3
-125 3 -125 1 0 44 42 98 92 147 141 298 247 487 341 83 41 255 109 300 118
10 2 33 8 50 13 31 10 153 36 211 46 115 19 353 25 480 12 118 -12 137 -15
215 -32 362 -76 687 -248 954 -505 48 -47 90 -84 92 -82 2 1 6 68 8 150 3 81
7 157 10 169 2 11 8 43 12 70 37 257 145 535 297 763 294 441 765 755 1267
844 19 3 46 8 60 11 57 11 173 19 282 20 65 0 118 0 118 1 0 0 -33 35 -72 76
-201 206 -331 408 -433 669 -37 94 -89 279 -100 354 -3 23 -8 52 -10 65 -24
119 -24 480 0 570 2 8 6 33 10 55 27 191 146 503 260 686 60 95 166 230 255
322 51 53 91 97 88 97 -68 0 -313 11 -338 15 -33 5 -102 18 -160 29 -72 14
-193 51 -293 90 -296 115 -577 315 -791 566 -53 62 -157 213 -196 285 -18 33
-43 78 -55 100 -57 106 -134 328 -160 465 -3 14 -8 36 -11 50 -15 66 -30 237
-30 338 1 62 0 112 -1 112 -1 0 -37 -35 -80 -77 -86 -86 -220 -193 -316 -254
-58 -37 -255 -138 -324 -167 -137 -57 -371 -113 -538 -129 -138 -13 -378 -6
-483 14 -15 2 -49 9 -77 14 -27 5 -63 12 -80 15 -117 22 -408 140 -532 215
-55 33 -147 92 -153 99 -3 3 -30 24 -60 46 -30 23 -97 81 -149 130 -51 49 -96
90 -100 91 -3 2 -5 -45 -5 -105z m1614 -1326 c99 -8 137 -13 205 -27 28 -5 60
-11 73 -14 126 -24 336 -99 478 -171 539 -274 920 -750 1074 -1338 35 -135 40
-166 55 -331 12 -132 7 -381 -10 -458 -2 -12 -7 -38 -10 -57 -18 -127 -80
-341 -132 -460 -184 -423 -469 -745 -873 -988 -79 -48 -236 -120 -330 -152
-36 -12 -74 -26 -85 -30 -73 -30 -362 -84 -485 -90 -122 -6 -306 0 -400 14
-14 2 -47 7 -75 11 -111 15 -343 84 -465 137 -762 332 -1251 1069 -1252 1888
-1 101 7 237 16 290 3 14 7 41 10 60 3 19 8 46 11 60 3 14 7 34 9 46 16 82
100 339 118 362 6 6 8 12 5 12 -10 0 104 213 160 300 228 351 560 628 946 788
129 54 331 112 442 128 28 3 59 8 70 10 11 2 54 6 95 9 41 4 75 7 76 8 5 4
195 0 274 -7z"/>
<path d="M3425 4660 c-87 -19 -162 -81 -203 -169 l-26 -56 -1 -480 -1 -480
-324 -5 c-370 -6 -368 -6 -450 -90 -52 -53 -80 -119 -85 -197 -8 -109 63 -231
162 -280 l58 -28 608 -3 607 -3 0 769 c0 858 2 829 -70 920 -63 80 -179 123
-275 102z"/>
</g>
</svg>
