<?xml version="1.0" encoding="UTF-8"?>
<svg width="104px" height="39px" viewBox="0 0 104 39" version="1.1" xmlns="http://www.w3.org/2000/svg" xmlns:xlink="http://www.w3.org/1999/xlink">
    <title>Group 4</title>
    <g id="Web-App-💻" stroke="none" stroke-width="1" fill="none" fill-rule="evenodd">
        <g id="Sun-View" transform="translate(-114.000000, -457.000000)" fill="#FFFFFF">
            <g id="Header" transform="translate(114.000000, 17.000000)">
                <g id="Group-4" transform="translate(0.000000, 440.000000)">
                    <text id="astro" font-family="ArialRoundedMTBold, Arial Rounded MT Bold" font-size="24" font-weight="normal">
                        <tspan x="44" y="26">astro</tspan>
                    </text>
                    <path d="M19.4,13 C18.52,13 17.8,13.75 17.8,14.6666667 L17.8,19.6666667 L14.6,19.6666667 C13.72,19.6666667 13,20.4166667 13,21.3333333 C13,22.25 13.72,23 14.6,23 L21,23 L21,14.6666667 C21,13.75 20.28,13 19.4,13 Z M39,11.46275 C32.565,11.779625 27.265875,6.462625 27.6055,0.027625 C23.278125,4.8035 15.77225,4.7905 11.46275,0 C11.779625,6.435 6.462625,11.734125 0.027625,11.3945 C4.8035,15.721875 4.7905,23.22775 0,27.53725 C6.435,27.220375 11.734125,32.537375 11.3945,38.972375 C15.72025,34.1965 23.22775,34.2095 27.53725,39 C27.220375,32.563375 32.537375,27.265875 38.972375,27.6055 C34.1965,23.278125 34.2095,15.77225 39,11.46275 Z M19.5,31 C13.1487143,31 8,25.8512857 8,19.5 C8,13.1487143 13.1487143,8 19.5,8 C25.8512857,8 31,13.1487143 31,19.5 C31,25.8512857 25.8512857,31 19.5,31 Z" id="Shape" fill-rule="nonzero"></path>
                </g>
            </g>
        </g>
    </g>
</svg>